<?xml version="1.0" encoding="UTF-8"?>
<svg id="Layer_1" xmlns="http://www.w3.org/2000/svg" version="1.1" viewBox="0 0 384 85.84">
  <!-- Generator: Adobe Illustrator 30.2.1, SVG Export Plug-In . SVG Version: 2.1.1 Build 1)  -->
  <defs>
    <style>
      .st0 {
        fill: #ffffff;
      }

      .st1 {
        fill: #f08831;
      }
    </style>
  </defs>
  <path class="st1" d="M143.97,66.82c7.51,1.36,15.2,2.44,23.06,3.23l-4.97,2.88c-6.26-1.78-12.31-3.82-18.08-6.11ZM235.48,82.95c-14.15.04-31.66-1.52-44.65-3.81l10.62-6.15c1.93.03,7.69.4,9.63.4,73.24-.23,136.97-25.49,170.17-62.65-17.09,41.38-75.83,72-145.77,72.22ZM170.13,70.86c2.98.3,7.37.64,10.4.86l-6.6,3.83c-2.4-.58-6.44-1.13-8.78-1.8l4.98-2.89ZM187.11,78.21c-4.7-.83-4.94-.74-9.44-1.84l6.92-4.18c5.77.41,6.28.33,12.19.42l-9.67,5.61Z"/>
  <g>
    <path class="st0" d="M13.57,38.68c-2.69,0-5-.5-6.93-1.49s-3.64-2.44-5.13-4.33l3.19-3.19c1.1,1.53,2.36,2.68,3.79,3.46,1.43.78,3.19,1.17,5.28,1.17s3.71-.45,4.96-1.35,1.87-2.13,1.87-3.69c0-1.3-.31-2.34-.92-3.14s-1.42-1.45-2.42-1.97c-1-.51-2.09-.97-3.29-1.37-1.2-.4-2.39-.84-3.59-1.32-1.2-.48-2.3-1.09-3.31-1.82-1.01-.73-1.82-1.67-2.42-2.81-.6-1.15-.9-2.62-.9-4.41,0-1.96.47-3.63,1.42-5.01.95-1.38,2.24-2.44,3.89-3.19s3.5-1.12,5.56-1.12c2.26,0,4.29.44,6.08,1.32,1.79.88,3.26,2.04,4.39,3.46l-3.19,3.19c-1.03-1.2-2.13-2.09-3.31-2.69-1.18-.6-2.53-.9-4.06-.9-1.86,0-3.34.41-4.43,1.22-1.1.81-1.64,1.95-1.64,3.41,0,1.16.31,2.1.92,2.82.61.71,1.42,1.32,2.42,1.82s2.1.96,3.31,1.37c1.21.42,2.42.87,3.61,1.37,1.2.5,2.29,1.13,3.29,1.89,1,.76,1.8,1.75,2.42,2.96.61,1.21.92,2.73.92,4.56,0,3.06-1.06,5.45-3.16,7.18-2.11,1.73-4.98,2.59-8.6,2.59Z"/>
    <path class="st0" d="M28.67,18.6v-4.09h16.14v4.09h-16.14ZM34.5,38.18V4.6h4.49v33.58h-4.49Z"/>
    <path class="st0" d="M59.21,38.68c-2.29,0-4.37-.55-6.23-1.64-1.86-1.1-3.34-2.58-4.43-4.46-1.1-1.88-1.64-3.98-1.64-6.3s.55-4.36,1.64-6.2c1.1-1.84,2.57-3.31,4.43-4.41,1.86-1.1,3.94-1.64,6.23-1.64s4.43.54,6.3,1.62c1.88,1.08,3.36,2.55,4.46,4.41,1.1,1.86,1.64,3.94,1.64,6.23s-.55,4.43-1.64,6.3c-1.1,1.88-2.58,3.36-4.46,4.46-1.88,1.1-3.98,1.64-6.3,1.64ZM59.21,34.34c1.53,0,2.87-.35,4.04-1.05,1.16-.7,2.08-1.65,2.74-2.87.66-1.21,1-2.6,1-4.16s-.34-2.89-1.02-4.09c-.68-1.2-1.59-2.13-2.74-2.82-1.15-.68-2.48-1.02-4.01-1.02s-2.77.34-3.94,1.02c-1.16.68-2.08,1.62-2.74,2.82-.67,1.2-1,2.56-1,4.09s.33,2.95,1,4.16c.66,1.21,1.58,2.17,2.74,2.87,1.16.7,2.47,1.05,3.94,1.05Z"/>
    <path class="st0" d="M87.57,38.68c-2.39,0-4.53-.54-6.4-1.62-1.88-1.08-3.36-2.55-4.46-4.41-1.1-1.86-1.64-3.97-1.64-6.33s.54-4.42,1.62-6.28c1.08-1.86,2.54-3.33,4.38-4.41,1.84-1.08,3.91-1.62,6.2-1.62,2.16,0,4.09.5,5.78,1.49s3.01,2.38,3.96,4.14c.95,1.76,1.42,3.77,1.42,6.03,0,.33-.02.69-.05,1.07-.03.38-.1.81-.2,1.27h-19.98v-3.74h17.59l-1.64,1.45c0-1.59-.28-2.95-.85-4.06-.57-1.11-1.36-1.98-2.39-2.59-1.03-.61-2.28-.92-3.74-.92s-2.87.33-4.04,1c-1.16.67-2.06,1.59-2.69,2.79-.63,1.2-.95,2.61-.95,4.24s.33,3.11,1,4.36c.66,1.25,1.61,2.21,2.84,2.89,1.23.68,2.64,1.02,4.24,1.02,1.33,0,2.55-.23,3.66-.7,1.11-.46,2.07-1.16,2.87-2.09l2.89,2.94c-1.16,1.33-2.56,2.34-4.19,3.04-1.63.7-3.37,1.05-5.23,1.05Z"/>
    <path class="st0" d="M100.17,18.6v-4.09h31.94v4.09h-31.94ZM105.95,38.18V11.92c0-1.83.39-3.43,1.17-4.81.78-1.38,1.88-2.47,3.29-3.29,1.41-.81,3.03-1.22,4.86-1.22s3.39.4,4.58,1.2c1.2.8,2.08,1.89,2.67,3.26.58,1.38.87,2.95.87,4.71h-3.29c-.03-1.56-.45-2.8-1.25-3.71-.8-.91-1.99-1.37-3.59-1.37s-2.75.47-3.56,1.4c-.81.93-1.22,2.18-1.22,3.74v26.36h-4.54ZM120.1,38.18V10.97c0-1.73.38-3.26,1.15-4.58.76-1.33,1.82-2.37,3.16-3.14,1.35-.76,2.92-1.15,4.71-1.15,1.36,0,2.54.23,3.54.7,1,.47,1.91,1.15,2.74,2.04l-2.94,2.89c-.43-.46-.91-.81-1.45-1.05-.53-.23-1.18-.35-1.94-.35-1.43,0-2.53.41-3.31,1.22-.78.81-1.17,1.95-1.17,3.41v27.21h-4.49Z"/>
    <path class="st0" d="M146.21,38.68c-2.39,0-4.53-.54-6.4-1.62-1.88-1.08-3.36-2.55-4.46-4.41-1.1-1.86-1.64-3.97-1.64-6.33s.54-4.42,1.62-6.28c1.08-1.86,2.54-3.33,4.38-4.41,1.84-1.08,3.91-1.62,6.2-1.62,2.16,0,4.09.5,5.78,1.49s3.01,2.38,3.96,4.14c.95,1.76,1.42,3.77,1.42,6.03,0,.33-.02.69-.05,1.07-.03.38-.1.81-.2,1.27h-19.98v-3.74h17.59l-1.64,1.45c0-1.59-.28-2.95-.85-4.06-.57-1.11-1.36-1.98-2.39-2.59-1.03-.61-2.28-.92-3.74-.92s-2.87.33-4.04,1c-1.16.67-2.06,1.59-2.69,2.79-.63,1.2-.95,2.61-.95,4.24s.33,3.11,1,4.36c.66,1.25,1.61,2.21,2.84,2.89,1.23.68,2.64,1.02,4.24,1.02,1.33,0,2.55-.23,3.66-.7,1.11-.46,2.07-1.16,2.87-2.09l2.89,2.94c-1.16,1.33-2.56,2.34-4.19,3.04-1.63.7-3.37,1.05-5.23,1.05Z"/>
    <path class="st0" d="M161.96,38.18V2.6h4.48v35.58h-4.48Z"/>
    <path class="st0" d="M173.02,27.67v-4.29h16.39v4.29h-16.39Z"/>
    <path class="st1" d="M196.79,38.18V3.6h3.29l14.65,24.07h-2.24l14.65-24.07h3.29v34.58h-4.68V11.82l1.05.3-11.51,18.98h-3.34l-11.51-18.98,1.05-.3v26.36h-4.68Z"/>
    <path class="st1" d="M248.76,38.68c-2.39,0-4.53-.54-6.4-1.62-1.88-1.08-3.36-2.55-4.46-4.41-1.1-1.86-1.64-3.97-1.64-6.33s.54-4.42,1.62-6.28c1.08-1.86,2.54-3.33,4.38-4.41,1.84-1.08,3.91-1.62,6.2-1.62,2.16,0,4.09.5,5.78,1.49s3.01,2.38,3.96,4.14c.95,1.76,1.42,3.77,1.42,6.03,0,.33-.02.69-.05,1.07-.03.38-.1.81-.2,1.27h-19.98v-3.74h17.59l-1.64,1.45c0-1.59-.28-2.95-.85-4.06-.57-1.11-1.36-1.98-2.39-2.59-1.03-.61-2.28-.92-3.74-.92s-2.87.33-4.04,1c-1.16.67-2.06,1.59-2.69,2.79-.63,1.2-.95,2.61-.95,4.24s.33,3.11,1,4.36c.66,1.25,1.61,2.21,2.84,2.89,1.23.68,2.64,1.02,4.24,1.02,1.33,0,2.55-.23,3.66-.7,1.11-.46,2.07-1.16,2.87-2.09l2.89,2.94c-1.16,1.33-2.56,2.34-4.19,3.04-1.63.7-3.37,1.05-5.23,1.05Z"/>
    <path class="st1" d="M274.47,38.68c-2.16,0-4.1-.54-5.83-1.62-1.73-1.08-3.1-2.55-4.11-4.41-1.01-1.86-1.52-3.95-1.52-6.28s.51-4.42,1.52-6.28c1.01-1.86,2.38-3.34,4.11-4.44,1.73-1.1,3.67-1.64,5.83-1.64,1.79,0,3.4.37,4.83,1.12,1.43.75,2.58,1.78,3.46,3.09.88,1.31,1.37,2.83,1.47,4.56v7.13c-.1,1.69-.58,3.21-1.45,4.53-.86,1.33-2.01,2.37-3.44,3.11-1.43.75-3.06,1.12-4.88,1.12ZM275.22,34.44c1.5,0,2.81-.35,3.94-1.05,1.13-.7,2.01-1.65,2.64-2.87.63-1.21.95-2.6.95-4.16s-.32-3-.95-4.21c-.63-1.21-1.51-2.17-2.64-2.87-1.13-.7-2.44-1.05-3.94-1.05s-2.81.34-3.94,1.02c-1.13.68-2.02,1.63-2.67,2.84-.65,1.21-.97,2.62-.97,4.21s.32,3.01.97,4.24c.65,1.23,1.54,2.19,2.69,2.87,1.15.68,2.45,1.02,3.91,1.02ZM286.98,38.18h-4.53v-6.38l.85-5.78-.85-5.73V2.6h4.53v35.58Z"/>
    <path class="st1" d="M295.8,9.78c-.83,0-1.51-.27-2.04-.82-.53-.55-.8-1.24-.8-2.07s.27-1.47.8-2.02c.53-.55,1.21-.82,2.04-.82s1.51.27,2.04.82c.53.55.8,1.22.8,2.02s-.27,1.52-.8,2.07c-.53.55-1.21.82-2.04.82ZM293.51,38.18V14.51h4.53v23.67h-4.53Z"/>
    <path class="st1" d="M314.73,38.68c-2.19,0-4.16-.54-5.91-1.62-1.74-1.08-3.12-2.55-4.14-4.41-1.01-1.86-1.52-3.95-1.52-6.28s.51-4.42,1.52-6.28c1.01-1.86,2.39-3.34,4.14-4.44,1.74-1.1,3.71-1.64,5.91-1.64,1.79,0,3.4.37,4.81,1.12,1.41.75,2.55,1.78,3.41,3.09.86,1.31,1.34,2.83,1.45,4.56v7.13c-.1,1.69-.57,3.21-1.42,4.53-.85,1.33-1.99,2.37-3.41,3.11-1.43.75-3.04,1.12-4.83,1.12ZM315.48,34.44c2.23,0,4.02-.75,5.38-2.27,1.36-1.51,2.04-3.45,2.04-5.81,0-1.59-.32-3.01-.95-4.24-.63-1.23-1.5-2.18-2.62-2.87-1.11-.68-2.42-1.02-3.91-1.02s-2.82.35-3.96,1.05c-1.15.7-2.04,1.65-2.69,2.87-.65,1.21-.97,2.6-.97,4.16s.32,3,.97,4.21c.65,1.21,1.55,2.17,2.72,2.87,1.16.7,2.49,1.05,3.99,1.05ZM322.61,38.18v-6.38l.85-5.78-.85-5.73v-5.78h4.53v23.67h-4.53Z"/>
  </g>
</svg>